<svg version="1.1" id="Layer_1" xmlns="http://www.w3.org/2000/svg" xmlns:xlink="http://www.w3.org/1999/xlink" x="0px" y="0px"
	 viewBox="0 0 512 512" style="enable-background:new 0 0 512 512;" xml:space="preserve">
<g>
	<path fill="#258fbc" d="M231.62,402.29H73.14c-13.46-0.02-24.36-10.93-24.38-24.38V158.48c0.02-13.46,10.93-24.36,24.38-24.38l24.38,0
		c40.41-0.02,73.13-32.74,73.14-73.14l0,0h146.29v0c0.02,40.41,32.74,73.13,73.14,73.14l24.38,0c13.46,0.02,24.36,10.93,24.38,24.38
		v60.95c0,13.47,10.92,24.38,24.38,24.38c13.47,0,24.38-10.92,24.38-24.38l0-60.95c-0.02-40.41-32.74-73.13-73.14-73.14H390.1
		c-13.46-0.02-24.36-10.93-24.38-24.38c-0.02-26.94-21.82-48.75-48.76-48.76H170.67c-26.94,0.02-48.75,21.82-48.76,48.76
		c-0.02,13.46-10.93,24.36-24.38,24.38H73.14C32.74,85.35,0.02,118.07,0,158.48V377.9c0.02,40.41,32.74,73.13,73.14,73.14h158.48
		c13.47,0,24.38-10.92,24.38-24.38C256,413.2,245.08,402.29,231.62,402.29z"/>
	<path fill="#258fbc" d="M333.42,217.47c-15.9-36.88-51.84-59.02-89.61-58.99c-12.88,0-26.02,2.58-38.52,7.96c-36.88,15.9-59.02,51.84-58.99,89.61
		c0,12.88,2.58,26.02,7.96,38.52c12.27,28.51,37.38,49.48,67.62,56.47c13.12,3.03,26.21-5.15,29.24-18.27
		c3.03-13.12-5.15-26.21-18.27-29.24c-15.12-3.49-27.68-13.98-33.81-28.23c-2.73-6.35-3.99-12.83-3.99-19.24
		c0.03-18.9,11.03-36.9,29.5-44.82c6.35-2.73,12.82-3.99,19.24-3.99c18.9,0.03,36.9,11.03,44.82,29.5
		c5.32,12.37,19.67,18.08,32.03,12.76C333.03,244.18,338.75,229.84,333.42,217.47L333.42,217.47z"/>
	<path fill="#258fbc" d="M292.57,377.9c0.02,53.87,43.65,97.51,97.52,97.52c53.87-0.02,97.51-43.65,97.52-97.52
		c-0.02-53.87-43.65-97.51-97.52-97.52C336.22,280.4,292.59,324.03,292.57,377.9c0,13.47,10.92,24.38,24.38,24.38
		s24.38-10.92,24.38-24.38c0.05-26.92,21.84-48.71,48.76-48.76c26.92,0.05,48.71,21.84,48.76,48.76
		c-0.05,26.92-21.84,48.71-48.76,48.76c-26.92-0.05-48.71-21.84-48.76-48.76c0-13.47-10.92-24.38-24.38-24.38
		S292.57,364.44,292.57,377.9L292.57,377.9z"/>
	<path fill="#258fbc" d="M426.49,448.78l43.89,43.89c9.52,9.52,24.96,9.52,34.48,0c9.52-9.52,9.52-24.96,0-34.48l-43.89-43.89
		c-9.52-9.52-24.96-9.52-34.48,0C416.97,423.82,416.97,439.26,426.49,448.78"/>
</g>
</svg>
