<?xml version="1.0" encoding="utf-8"?>
<!-- Svg Vector Icons : http://www.onlinewebfonts.com/icon -->
<!DOCTYPE svg PUBLIC "-//W3C//DTD SVG 1.1//EN" "http://www.w3.org/Graphics/SVG/1.1/DTD/svg11.dtd">
<svg version="1.1" xmlns="http://www.w3.org/2000/svg" xmlns:xlink="http://www.w3.org/1999/xlink" x="0px" y="0px" viewBox="0 0 256 256" enable-background="new 0 0 256 256" xml:space="preserve">
<metadata> Svg Vector Icons : http://www.onlinewebfonts.com/icon </metadata>
<g><g><g><g><path fill="#000000" d="M130.6,86.3c-28.3,0-51.3,23-51.3,51.3c0,28.3,23,51.3,51.3,51.3c12.1,0,23.2-4.2,32-11.2c1.3,2.7,4,4.6,7.2,4.6c4.4,0,7.9-3.6,7.9-7.9c0-3.4-2.1-6.3-5.1-7.4c5.8-8.3,9.3-18.4,9.3-29.3C181.9,109.3,158.9,86.3,130.6,86.3z M130.6,175.6c-21,0-38.1-17.1-38.1-38.1c0-21,17.1-38.1,38.1-38.1c21,0,38.1,17.1,38.1,38.1C168.7,158.5,151.6,175.6,130.6,175.6z"/><path fill="#000000" d="M153.9,132.1l-15.1,8.8c-0.1,0-0.2,0.1-0.3,0.2l-2.3,1.3c-0.7,0.4-1.2,1.2-1.2,2c0,0.8,0.5,1.6,1.2,2l13.2,7.6c0.4,0.2,0.8,0.3,1.2,0.3c0.7,0,1.4-0.3,1.9-1c3.4-4.6,5.2-10.3,5.2-15.9c0-1.2-0.1-2.5-0.3-3.7c-0.1-0.8-0.6-1.4-1.3-1.8C155.4,131.7,154.6,131.7,153.9,132.1z"/><path fill="#000000" d="M114.3,120.1l15,8.6c0.1,0,0.2,0.1,0.3,0.1l2.5,1.4c0.4,0.2,0.8,0.3,1.2,0.3c0.4,0,0.8-0.1,1.2-0.3c0.7-0.4,1.2-1.2,1.2-2v-15.2c0-1.2-0.9-2.2-2.1-2.3c-6.9-0.7-13.9,1.3-19.4,5.6c-0.6,0.5-0.9,1.2-0.9,2C113.2,119,113.6,119.7,114.3,120.1z"/><path fill="#000000" d="M140.8,112.5c-0.7-0.3-1.5-0.2-2.2,0.2c-0.7,0.4-1,1.2-1,1.9v20.4c0,0.8,0.5,1.6,1.2,2c0.4,0.2,0.8,0.3,1.2,0.3c0.4,0,0.8-0.1,1.2-0.3l13.1-7.6c1-0.6,1.4-1.9,1-3C152.4,120.1,147.3,115.2,140.8,112.5z"/><path fill="#000000" d="M146.8,155.1l-17.6-10.2c-0.7-0.4-1.6-0.4-2.3,0c-0.7,0.4-1.2,1.2-1.2,2v15.2c0,1.2,0.9,2.2,2.1,2.3c0.9,0.1,1.9,0.2,2.8,0.2c5.9,0,11.7-2,16.5-5.6c0.6-0.5,1-1.2,0.9-2C147.9,156.2,147.4,155.5,146.8,155.1z"/><path fill="#000000" d="M126.1,130.6c0-0.8-0.5-1.6-1.2-2l-13.1-7.6c-1-0.6-2.3-0.3-3,0.7c-3.3,4.6-5.2,10.2-5.2,15.8c0,1.2,0.1,2.3,0.2,3.4c0.1,0.8,0.6,1.4,1.3,1.8c0.3,0.2,0.7,0.2,1,0.2c0.4,0,0.8-0.1,1.2-0.3l17.6-10C125.6,132.3,126.1,131.5,126.1,130.6z"/><path fill="#000000" d="M120.1,137.8l-13.3,7.6c-1,0.6-1.4,1.9-1,3c2.8,6.5,8,11.5,14.5,14.2c0.3,0.1,0.6,0.2,0.9,0.2c0.5,0,0.9-0.1,1.3-0.4c0.7-0.4,1-1.2,1-1.9v-20.5c0-0.8-0.4-1.6-1.2-2C121.7,137.5,120.8,137.5,120.1,137.8z"/><path fill="#000000" d="M130.6,102.8c-19.2,0-34.8,15.6-34.8,34.8c0,19.2,15.6,34.8,34.8,34.8c19.2,0,34.8-15.6,34.8-34.8C165.4,118.4,149.8,102.8,130.6,102.8z M130.6,167.6c-16.6,0-30.1-13.5-30.1-30.1c0-16.6,13.5-30.1,30.1-30.1c16.6,0,30.1,13.5,30.1,30.1C160.7,154.1,147.2,167.6,130.6,167.6z"/><path fill="#000000" d="M227.4,50.4h-37.6c-9.6,0-17.4,7.2-18.5,16.4h-21.8L141.3,52c-1.3-1.9-3.9-4.3-10.2-4.3h-1.9H84.4h-2c-6.2,0-8.9,2.4-10.2,4.3L64,66.8h-4.8c-1.1-2.7-6.5-4.8-13.1-4.8c-7.2,0-13,2.4-13.3,5.5c-11.2,2.6-19.5,12.6-19.5,24.3L10,183c0,13.9,11.3,25.2,25.2,25.2h143.1c13.9,0,25.2-11.3,25.2-25.5l-3-83.9h26.9c10.3,0,18.6-8.3,18.6-18.6V69C246,58.7,237.7,50.4,227.4,50.4z M180.2,60.3c0-0.4,0.4-0.7,0.8-0.7h6.5c0.4,0,0.8,0.3,0.8,0.7V88c0,0.4-0.4,0.8-0.8,0.8H181c-0.4,0-0.8-0.4-0.8-0.8L180.2,60.3L180.2,60.3z M178.3,195.1H35.2c-5.8,0-10.7-4.1-11.8-9.4h18.2c10.3,0,18.7-8.4,18.7-18.9l-2.1-58.7c0-10.3-8.4-18.7-18.7-18.7H26.8C28,84,32.8,80,38.5,80h132.7v0.3c0,9.5,7,17.3,16.2,18.5l3.1,84.3C190.4,189.7,185,195.1,178.3,195.1z M202.1,89.2c-3.2,0-5.9-0.4-8-1c-0.4-0.1-0.8-0.4-0.8-0.8v-4.8c0-0.6,0.2-0.8,0.8-0.8c1.7,0.2,5.9,0.6,8,0.6c1.9,0,2.5-0.7,2.5-2c0-0.8-0.4-1.2-1.9-2.1l-5.7-3.3c-3.7-2.2-4.7-4.8-4.7-7.9c0-4.3,2.4-7.9,10.3-7.9c3.1,0,7.3,0.5,9,1c0.4,0.1,0.7,0.3,0.7,0.7v4.9c0,0.4-0.2,0.8-0.8,0.7c-1.6-0.1-6.1-0.5-9-0.5c-1.4,0-2,0.5-2,1.3c0,0.7,0.4,1.1,2,2l5.3,2.8c3.8,2,5.2,4.6,5.2,7.9C213.2,84.6,210.2,89.2,202.1,89.2z M240.9,76.2c0,9.6-5.6,13-12.1,13c-6.6,0-12.1-3.3-12.1-13v-4.1c0-9.6,5.6-13,12.1-13c6.6,0,12.1,3.4,12.1,13V76.2z"/><path fill="#000000" d="M228.8,66.2c-2.8,0-4,1.7-4,5.9v4.1c0,4.2,1.2,5.9,4,5.9s4-1.7,4-5.9v-4.1C232.8,67.9,231.5,66.2,228.8,66.2z"/></g></g><g></g><g></g><g></g><g></g><g></g><g></g><g></g><g></g><g></g><g></g><g></g><g></g><g></g><g></g><g></g></g></g>
</svg>